#!OML:ASF X:\für Bonn\!DataBase\2005_08_12_Daniel\c3d\Daniel.ASF
:FULLY-SPECIFIED
:DEGREES
123
root -3.31278 8.02887 -1.2374 12.8722 -88.7631 -39.2408
lowerback 57.3177 -3.58239 4.06071
upperback 4.23235 -3.82686 -2.07057
thorax -17.185 -2.40189 -2.02639
lowerneck 9.20965 2.31339 -1.33466
upperneck -6.50215 2.85266 -0.828911
head -3.76946 1.48442 -0.213382
rclavicle -1.02374e-014 7.55382e-015
rhumerus 70.8324 -13.3636 -145.698
rradius 6.27785
rwrist 111.394
rhand -22.6222 11.5091
rfingers 7.12502
rthumb 3.80793 -18.4366
lclavicle -1.02374e-014 7.55382e-015
lhumerus 61.8527 3.69069 94.6015
lradius 9.73673
lwrist -71.0801
lhand -15.4817 2.06158
lfingers 7.12502
lthumb 10.7001 31.7691
rfemur 25.9743 -64.9084 -115.182
rtibia 147.104
rfoot 328.459 59.7386
rtoes -12.7538
lfemur -582.213 114.822 -136.203
ltibia 144.101
lfoot -18.1577 -61.8975
ltoes 4.85583
124
root -3.2907 8.2034 -1.23691 12.9855 -88.7572 -38.9033
lowerback 57.2432 -3.60085 4.08589
upperback 4.18597 -3.8196 -2.0538
thorax -17.235 -2.39584 -2.02335
lowerneck 9.04512 2.31014 -1.41031
upperneck -6.59545 2.8422 -0.813526
head -3.77146 1.48077 -0.192865
rclavicle 1.58034e-014 -1.35174e-014
rhumerus 70.8272 -13.0663 -145.516
rradius 6.35421
rwrist 111.468
rhand -22.5592 11.4225
rfingers 7.12502
rthumb 3.86877 -18.5222
lclavicle 1.58034e-014 -1.35174e-014
lhumerus 62.1732 3.53652 94.45
lradius 9.71621
lwrist -71.1586
lhand -16.0691 2.05217
lfingers 7.12502
lthumb 10.1335 31.7881
rfemur 21.4143 -66.7097 -107.792
rtibia 145.819
rfoot 330.855 57.7786
rtoes -12.8726
lfemur -585.921 116.856 -142.381
ltibia 142.866
lfoot -17.6744 -59.4525
ltoes 4.56794
125
root -3.27001 8.38086 -1.23691 11.8458 -88.7573 -37.2911
lowerback 57.1327 -3.60895 4.09662
upperback 4.12539 -3.80932 -2.05062
thorax -17.3009 -2.38646 -2.03177
lowerneck 8.8862 2.29157 -1.46948
upperneck -6.63521 2.81297 -0.807229
head -3.75513 1.46754 -0.176669
rclavicle 2.127e-014 4.77083e-015
rhumerus 70.8511 -12.8311 -145.338
rradius 6.37806
rwrist 111.641
rhand -22.6308 11.2365
rfingers 7.12502
rthumb 3.79965 -18.7094
lclavicle 2.127e-014 4.77083e-015
lhumerus 62.4344 3.36101 94.2891
lradius 9.7578
lwrist -71.3322
lhand -16.5772 2.12554
lfingers 7.12502
lthumb 9.64329 31.8848
rfemur 14.984 -68.3069 -98.596
rtibia 144.503
rfoot 333.15 55.645
rtoes -12.9404
lfemur -588.996 119.11 -147.894
ltibia 141.591
lfoot -17.1133 -57.0226
ltoes 4.41151
126
root -3.24987 8.56169 -1.23658 10.9279 -88.7433 -35.8627
lowerback 56.9886 -3.63274 4.11828
upperback 4.04804 -3.80899 -2.05082
thorax -17.3859 -2.38038 -2.0443
lowerneck 8.64404 2.27572 -1.5269
upperneck -6.60146 2.79107 -0.79013
head -3.69657 1.4569 -0.155794
rclavicle 9.34288e-015 6.75868e-015
rhumerus 70.8249 -12.6166 -145.162
rradius 6.44852
rwrist 111.895
rhand -22.7839 11.0228
rfingers 7.12502
rthumb 3.65181 -18.9257
lclavicle 9.34288e-015 6.75868e-015
lhumerus 62.6959 3.18563 94.1212
lradius 9.78905
lwrist -71.5657
lhand -17.072 2.20547
lfingers 7.12502
lthumb 9.16589 31.9863
rfemur 6.72605 -69.456 -87.6227
rtibia 143.148
rfoot 335.362 53.4178
rtoes -13.0651
lfemur -591.659 121.588 -152.931
ltibia 140.283
lfoot -16.6363 -54.5088
ltoes 4.21694
127
root -3.23118 8.74569 -1.23613 10.8857 -88.7265 -35.3065
lowerback 56.8418 -3.66418 4.15644
upperback 3.94474 -3.80358 -2.0479
thorax -17.5023 -2.37223 -2.06304
lowerneck 8.46893 2.27096 -1.61088
upperneck -6.59116 2.78182 -0.745896
head -3.6606 1.45223 -0.123324
rclavicle 1.61016e-014 3.18055e-015
rhumerus 70.7336 -12.4564 -144.968
rradius 6.58444
rwrist 112.146
rhand -22.8823 10.8455
rfingers 7.12502
rthumb 3.55677 -19.1045
lclavicle 1.61016e-014 3.18055e-015
lhumerus 62.9259 3.02734 93.9474
lradius 9.80049
lwrist -71.7013
lhand -17.433 2.35238
lfingers 7.12502
lthumb 8.81752 32.1482
rfemur -3.25735 -69.8779 -74.9478
rtibia 141.753
rfoot 337.488 51.0752
rtoes -13.1166
lfemur -593.667 124.117 -157.219
ltibia 138.95
lfoot -16.3326 -52.0343
ltoes 4.02356
128
root -3.21491 8.93154 -1.23647 9.94373 -88.7062 -33.8407
lowerback 56.6597 -3.67563 4.15955
upperback 3.82558 -3.78859 -2.02067
thorax -17.6321 -2.35735 -2.04365
lowerneck 8.32656 2.25762 -1.71177
upperneck -6.53984 2.75632 -0.732233
head -3.61645 1.44108 -0.0971588
rclavicle -6.95746e-015 -5.56597e-015
rhumerus 70.6233 -12.3299 -144.735
rradius 6.69483
rwrist 112.37
rhand -23.0984 10.648
rfingers 7.12502
rthumb 3.34811 -19.3054
lclavicle -6.95746e-015 -5.56597e-015
lhumerus 63.1281 2.88322 93.8074
lradius 9.79164
lwrist -71.7482
lhand -17.7393 2.49198
lfingers 7.12502
lthumb 8.52196 32.3
rfemur -13.5894 -69.4155 -62.0272
rtibia 140.338
rfoot 339.18 48.5729
rtoes -13.4372
lfemur -595.181 126.669 -160.963
ltibia 137.589
lfoot -16.1327 -49.5783
ltoes 3.95741
129
root -3.20064 9.11833 -1.23588 9.25676 -88.679 -32.5957
lowerback 56.3807 -3.70929 4.20831
upperback 3.72631 -3.7826 -2.03107
thorax -17.7333 -2.34805 -2.086
lowerneck 8.24202 2.23763 -1.78437
upperneck -6.52912 2.72611 -0.69336
head -3.59785 1.42609 -0.0686325
rclavicle 1.68967e-015 1.19271e-015
rhumerus 70.5306 -12.2153 -144.55
rradius 6.81723
rwrist 112.479
rhand -23.2396 10.5065
rfingers 7.12502
rthumb 3.21168 -19.449
lclavicle 1.68967e-015 1.19271e-015
lhumerus 63.3683 2.70996 93.6229
lradius 9.72383
lwrist -71.6668
lhand -17.8757 2.65652
lfingers 7.12502
lthumb 8.3903 32.4699
rfemur -23.2328 -68.0904 -49.9002
rtibia 138.895
rfoot 340.787 46.0449
rtoes -13.6451
lfemur -596.352 129.18 -164.256
ltibia 136.205
lfoot -15.8469 -47.2097
ltoes 3.94308
130
root -3.19003 9.30666 -1.23603 9.00135 -88.6619 -31.7876
lowerback 56.0351 -3.72123 4.2216
upperback 3.65406 -3.77191 -2.01644
thorax -17.7907 -2.33554 -2.0878
lowerneck 8.15873 2.22902 -1.84944
upperneck -6.52371 2.70755 -0.706655
head -3.58043 1.41894 -0.0593649
rclavicle -1.88845e-014 2.38542e-015
rhumerus 70.4896 -12.0032 -144.38
rradius 6.81828
rwrist 112.511
rhand -23.3911 10.3153
rfingers 7.12502
rthumb 3.06543 -19.6424
lclavicle -1.88845e-014 2.38542e-015
lhumerus 63.5858 2.58653 93.4466
lradius 9.69519
lwrist -71.4437
lhand -17.9252 2.75276
lfingers 7.12502
lthumb 8.34255 32.568
rfemur -31.1388 -66.0442 -39.5948
rtibia 137.431
rfoot 342.079 43.5139
rtoes -13.7952
lfemur -597.129 131.603 -167.052
ltibia 134.805
lfoot -15.9256 -44.972
ltoes 3.65021
131
root -3.18199 9.49666 -1.23589 8.41699 -88.6278 -30.6413
lowerback 55.6258 -3.73994 4.25546
upperback 3.59962 -3.76021 -2.00617
thorax -17.819 -2.32368 -2.10628
lowerneck 8.07409 2.20306 -1.91502
upperneck -6.51672 2.66601 -0.717732
head -3.5621 1.40027 -0.0479677
rclavicle 5.66536e-015 1.59028e-015
rhumerus 70.5213 -11.7954 -144.215
rradius 6.73432
rwrist 112.4
rhand -23.4983 10.2095
rfingers 7.12502
rthumb 2.96192 -19.7497
lclavicle 5.66536e-015 1.59028e-015
lhumerus 63.7772 2.41823 93.29
lradius 9.68534
lwrist -71.1001
lhand -17.8705 2.85524
lfingers 7.12502
lthumb 8.39535 32.6684
rfemur -37.363 -63.4639 -31.0744
rtibia 135.925
rfoot 343.219 41.0103
rtoes -13.9933
lfemur -597.634 133.928 -169.516
ltibia 133.374
lfoot -16.2872 -42.8619
ltoes 3.19012
132
root -3.17484 9.68798 -1.23585 7.5933 -88.5995 -29.2681
lowerback 55.2146 -3.75039 4.27816
upperback 3.53967 -3.7456 -1.99583
thorax -17.8518 -2.31007 -2.12138
lowerneck 8.00467 2.16991 -1.97111
upperneck -6.51515 2.61292 -0.760147
head -3.5479 1.37699 -0.0481598
rclavicle -1.53064e-014 7.15625e-015
rhumerus 70.5213 -11.6078 -144.043
rradius 6.63859
rwrist 112.204
rhand -23.6508 10.1084
rfingers 7.12502
rthumb 2.81459 -19.8528
lclavicle -1.53064e-014 7.15625e-015
lhumerus 63.9158 2.26505 93.1267
lradius 9.69398
lwrist -70.6595
lhand -17.7447 2.88279
lfingers 7.12502
lthumb 8.51672 32.691
rfemur -42.0887 -60.5269 -24.1503
rtibia 134.396
rfoot 344.189 38.5074
rtoes -14.2143
lfemur -597.922 136.216 -171.696
ltibia 131.904
lfoot -16.5992 -40.8587
ltoes 2.68747
133
root -3.16912 9.87826 -1.23556 6.79815 -88.5746 -27.9049
lowerback 54.7488 -3.75899 4.29358
upperback 3.48431 -3.73541 -1.98867
thorax -17.8716 -2.29756 -2.13602
lowerneck 7.91471 2.1454 -2.01003
upperneck -6.47604 2.57449 -0.802583
head -3.51634 1.36022 -0.0516459
rclavicle -2.94201e-014 4.77083e-015
rhumerus 70.5055 -11.4487 -143.873
rradius 6.54512
rwrist 111.978
rhand -23.7559 10.0228
rfingers 7.12502
rthumb 2.71313 -19.9397
lclavicle -2.94201e-014 4.77083e-015
lhumerus 63.9928 2.11954 92.9534
lradius 9.78068
lwrist -70.1885
lhand -17.552 2.8616
lfingers 7.12502
lthumb 8.70272 32.6622
rfemur -45.5196 -57.513 -18.6694
rtibia 132.87
rfoot 344.974 36.1135
rtoes -14.3405
lfemur -598.07 138.359 -173.638
ltibia 130.42
lfoot -16.8659 -39.0011
ltoes 2.22847
